<?xml version="1.0" encoding="UTF-8" standalone="no"?>
<svg
   xmlns:dc="http://purl.org/dc/elements/1.1/"
   xmlns:cc="http://creativecommons.org/ns#"
   xmlns:rdf="http://www.w3.org/1999/02/22-rdf-syntax-ns#"
   xmlns:svg="http://www.w3.org/2000/svg"
   xmlns="http://www.w3.org/2000/svg"
   xmlns:sodipodi="http://sodipodi.sourceforge.net/DTD/sodipodi-0.dtd"
   xmlns:inkscape="http://www.inkscape.org/namespaces/inkscape"
   version="1.1"
   id="Layer_1"
   x="0px"
   y="0px"
   viewBox="0 0 512.001 512.001"
   style="enable-background:new 0 0 512.001 512.001;"
   xml:space="preserve"
   sodipodi:docname="wikilight1-maskable1.svg"
   inkscape:version="0.91 r13725"
   inkscape:export-filename="C:\Users\Marc Schedel\OneDrive\_wikipages.md\www\app\img\wikilight1-maskable.png"
   inkscape:export-xdpi="44.999916"
   inkscape:export-ydpi="44.999916"><metadata
     id="metadata166"><rdf:RDF><cc:Work
         rdf:about=""><dc:format>image/svg+xml</dc:format><dc:type
           rdf:resource="http://purl.org/dc/dcmitype/StillImage" /><dc:title></dc:title></cc:Work></rdf:RDF></metadata><defs
     id="defs164" /><sodipodi:namedview
     inkscape:document-rotation="0"
     pagecolor="#ffffff"
     bordercolor="#666666"
     borderopacity="1"
     objecttolerance="10"
     gridtolerance="10"
     guidetolerance="10"
     inkscape:pageopacity="0"
     inkscape:pageshadow="2"
     inkscape:window-width="2560"
     inkscape:window-height="1377"
     id="namedview162"
     showgrid="false"
     inkscape:zoom="1.4142136"
     inkscape:cx="107.56175"
     inkscape:cy="218.59045"
     inkscape:window-x="-8"
     inkscape:window-y="-8"
     inkscape:window-maximized="1"
     inkscape:current-layer="Layer_1" /><g
     id="g113"
     transform="matrix(2.3831691,0,0,2.3831691,-28.011434,-290.97853)"><path
       style="fill:#464655"
       d="m 185.379,176.553 -17.655,0 c -4.879,0 -8.828,3.953 -8.828,8.828 0,3.486 2.063,6.435 4.998,7.869 l -22.653,56.64 -22.275,-55.681 4.62,0 c 4.879,0 8.828,-3.953 8.828,-8.828 0,-4.875 -3.948,-8.828 -8.828,-8.828 l -17.655,0 c -2.931,0 -5.664,1.452 -7.31,3.88 -1.638,2.426 -1.974,5.508 -0.888,8.228 l 7.514,18.786 -16.971,42.438 -22.275,-55.677 4.62,0 c 4.879,0 8.828,-3.953 8.828,-8.828 0,-4.875 -3.948,-8.828 -8.828,-8.828 l -17.655,0 c -2.931,0 -5.664,1.452 -7.31,3.88 -1.638,2.426 -1.974,5.508 -0.888,8.228 l 35.31,88.276 c 1.345,3.349 4.587,5.547 8.199,5.547 3.612,0 6.854,-2.198 8.199,-5.547 l 18.284,-45.713 18.285,45.713 c 1.345,3.349 4.586,5.547 8.199,5.547 3.613,0 6.854,-2.198 8.199,-5.547 l 33.09,-82.729 2.848,0 c 4.879,0 8.828,-3.953 8.828,-8.828 0,-4.875 -3.95,-8.826 -8.83,-8.826 z"
       id="path111"
       inkscape:connector-curvature="0" /></g><g
     id="g131" /><g
     id="g133" /><g
     id="g135" /><g
     id="g137" /><g
     id="g139" /><g
     id="g141" /><g
     id="g143" /><g
     id="g145" /><g
     id="g147" /><g
     id="g149" /><g
     id="g151" /><g
     id="g153" /><g
     id="g155" /><g
     id="g157" /><g
     id="g159" /></svg>