<?xml version="1.0" encoding="UTF-8" standalone="no"?>
<svg
   xmlns:dc="http://purl.org/dc/elements/1.1/"
   xmlns:cc="http://creativecommons.org/ns#"
   xmlns:rdf="http://www.w3.org/1999/02/22-rdf-syntax-ns#"
   xmlns:svg="http://www.w3.org/2000/svg"
   xmlns="http://www.w3.org/2000/svg"
   xmlns:sodipodi="http://sodipodi.sourceforge.net/DTD/sodipodi-0.dtd"
   xmlns:inkscape="http://www.inkscape.org/namespaces/inkscape"
   version="1.1"
   id="Layer_1"
   x="0px"
   y="0px"
   viewBox="0 0 512.001 512.001"
   style="enable-background:new 0 0 512.001 512.001;"
   xml:space="preserve"
   sodipodi:docname="wikilight1-maskable.svg"
   inkscape:version="1.0 (4035a4fb49, 2020-05-01)"
   inkscape:export-filename="C:\Users\Marc Schedel\OneDrive\_wikipages.md\www\app\img\wikilight1-maskable.png"
   inkscape:export-xdpi="96"
   inkscape:export-ydpi="96"><metadata
   id="metadata166"><rdf:RDF><cc:Work
       rdf:about=""><dc:format>image/svg+xml</dc:format><dc:type
         rdf:resource="http://purl.org/dc/dcmitype/StillImage" /><dc:title /></cc:Work></rdf:RDF></metadata><defs
   id="defs164" /><sodipodi:namedview
   inkscape:document-rotation="0"
   pagecolor="#ffffff"
   bordercolor="#666666"
   borderopacity="1"
   objecttolerance="10"
   gridtolerance="10"
   guidetolerance="10"
   inkscape:pageopacity="0"
   inkscape:pageshadow="2"
   inkscape:window-width="1469"
   inkscape:window-height="974"
   id="namedview162"
   showgrid="false"
   inkscape:zoom="1.4142136"
   inkscape:cx="270.54986"
   inkscape:cy="256.09215"
   inkscape:window-x="0"
   inkscape:window-y="0"
   inkscape:window-maximized="0"
   inkscape:current-layer="Layer_1" />






<path
   style="fill:#e4eaf8;stroke-width:0.770849"
   d="m 354.27969,268.50437 -83.00895,86.16943 -17.12519,38.09518 c -2.12219,4.72172 2.59508,9.61863 7.14288,7.41483 l 36.69717,-17.77802 56.29334,-58.43743 v -55.46399 z"
   id="path105" />
<path
   style="fill:#5b5d6e;stroke-width:0.770849"
   d="m 247.4551,393.74521 32.43309,-15.71086 c 2.82205,-1.36659 5.39139,-3.23501 7.59305,-5.52049 L 459.18405,194.27358 c 2.60794,-2.70722 2.60794,-7.09755 0,-9.80476 l -17.2697,-17.92724 c -2.60791,-2.7072 -6.83719,-2.7072 -9.44515,0 L 260.76563,344.78109 c -2.20164,2.28547 -4.00156,4.95264 -5.318,7.88212 l -15.13464,33.66795 c -2.12372,4.72017 2.59358,9.61705 7.14211,7.41405 z"
   id="path107" />
<rect
   style="fill:#e4eaf8;fill-opacity:1;stroke-width:1.69591"
   id="rect212"
   width="181.37102"
   height="14.407205"
   x="5.2265792"
   y="465.73956"
   transform="matrix(0.68645072,-0.72717632,0.70954008,0.70466508,0,0)" /><g
   id="g113"
   transform="matrix(1.2099186,0,0,1.2099186,6.04229,-80.986434)">
	<path
   style="fill:#464655;stroke-width:0.637108"
   d="M 350.82559,229.17894 194.50875,391.44807 c 1.22562,1.27227 3.13971,1.82857 5.01878,0.91851 l 26.806,-12.98506 c 2.33242,-1.12948 4.45599,-2.67374 6.27565,-4.56335 L 361.86615,240.64051 Z"
   id="path109" />
	<path
   style="fill:#464655"
   d="m 185.379,176.553 h -17.655 c -4.879,0 -8.828,3.953 -8.828,8.828 0,3.486 2.063,6.435 4.998,7.869 l -22.653,56.64 -22.275,-55.681 h 4.62 c 4.879,0 8.828,-3.953 8.828,-8.828 0,-4.875 -3.948,-8.828 -8.828,-8.828 h -17.655 c -2.931,0 -5.664,1.452 -7.31,3.88 -1.638,2.426 -1.974,5.508 -0.888,8.228 l 7.514,18.786 -16.971,42.438 -22.275,-55.677 h 4.62 c 4.879,0 8.828,-3.953 8.828,-8.828 0,-4.875 -3.948,-8.828 -8.828,-8.828 H 52.966 c -2.931,0 -5.664,1.452 -7.31,3.88 -1.638,2.426 -1.974,5.508 -0.888,8.228 l 35.31,88.276 c 1.345,3.349 4.587,5.547 8.199,5.547 3.612,0 6.854,-2.198 8.199,-5.547 l 18.284,-45.713 18.285,45.713 c 1.345,3.349 4.586,5.547 8.199,5.547 3.613,0 6.854,-2.198 8.199,-5.547 l 33.09,-82.729 h 2.848 c 4.879,0 8.828,-3.953 8.828,-8.828 0,-4.875 -3.95,-8.826 -8.83,-8.826 z"
   id="path111" />
</g>
<path
   style="fill:#959cb5;stroke-width:1.20991"
   d="m 219.65584,324.87957 h -149.529 c -5.903193,0 -10.681162,-4.78281 -10.681162,-10.68116 0,-5.89835 4.77676,-10.68116 10.681162,-10.68116 h 149.529 c 5.90318,0 10.68117,4.78281 10.68117,10.68116 0,5.89835 -4.77799,10.68116 -10.68117,10.68116 z"
   id="path115" />
<path
   style="fill:#7f8499;stroke-width:1.20991"
   d="M 390.54595,153.98946 H 283.73917 c -5.90318,0 -10.68115,-4.78281 -10.68115,-10.68117 0,-5.89836 4.77676,-10.68116 10.68115,-10.68116 h 106.80678 c 5.9032,0 10.68117,4.7828 10.68117,10.68116 0,5.89836 -4.77676,10.68117 -10.68117,10.68117 z"
   id="path117" />
<path
   style="fill:#707487;stroke-width:1.20991"
   d="m 347.82374,196.71168 h -64.08457 c -5.90318,0 -10.68115,-4.78281 -10.68115,-10.68116 0,-5.89836 4.77676,-10.68116 10.68115,-10.68116 h 64.08457 c 5.90319,0 10.68114,4.7828 10.68114,10.68116 0,5.89835 -4.77795,10.68116 -10.68114,10.68116 z"
   id="path119" />
<path
   style="fill:#959cb5;stroke-width:1.20991"
   d="M 176.9324,367.6018 H 70.12684 c -5.903193,0 -10.681162,-4.78281 -10.681162,-10.68117 0,-5.89834 4.77676,-10.68115 10.681162,-10.68115 h 106.80677 c 5.9032,0 10.68117,4.78281 10.68117,10.68115 -9.2e-4,5.89957 -4.77797,10.68117 -10.68238,10.68117 z"
   id="path121" />
<path
   style="fill:#7f8499;stroke-width:0.770849"
   d="m 294.17016,365.56711 -26.71486,-27.73199 -6.69042,6.94519 c -2.20166,2.28547 -4.00155,4.95264 -5.31801,7.88213 l -15.13463,33.66715 c -2.1222,4.72174 2.59506,9.61785 7.14286,7.41483 l 32.43234,-15.71086 c 2.82204,-1.36657 5.39139,-3.23501 7.59303,-5.52127 z"
   id="path123" />
<path
   style="fill:#707487;stroke-width:0.770849"
   d="m 280.81274,351.70112 -39.4307,40.93198 c 1.48291,1.53936 3.7988,2.21244 6.07232,1.11132 l 32.43308,-15.71086 c 2.82204,-1.36657 5.39139,-3.23501 7.59303,-5.52127 l 6.68969,-6.94439 z"
   id="path125" />
<path
   id="path127-5"
   d="m 454.10621,172.60644 c -2.60869,-2.70802 -6.83646,-2.70802 -9.44516,0 l -15.31393,15.89699 26.71485,27.73201 15.31393,-15.89703 c 2.60871,-2.70801 2.60871,-7.09752 0,-9.80474 z"
   style="fill:#e4eaf8;fill-opacity:1;stroke-width:0.770849" /><path
   style="fill:#7f8499;stroke-width:0.770849"
   d="m 441.91435,166.53846 c -2.60868,-2.70802 -6.83645,-2.70802 -9.44515,0 l -15.31393,15.89698 26.71485,27.732 15.31393,-15.89701 c 2.6087,-2.70801 2.6087,-7.09754 0,-9.80475 z"
   id="path127" />
<path
   style="fill:#707487;stroke-width:0.770849"
   d="m 459.18405,184.46568 -8.63484,-8.96361 -20.03651,20.79937 13.35742,13.866 15.31393,-15.89701 c 2.60794,-2.70643 2.60794,-7.09676 0,-9.80475 z"
   id="path129" />
<g
   id="g131">
</g>
<g
   id="g133">
</g>
<g
   id="g135">
</g>
<g
   id="g137">
</g>
<g
   id="g139">
</g>
<g
   id="g141">
</g>
<g
   id="g143">
</g>
<g
   id="g145">
</g>
<g
   id="g147">
</g>
<g
   id="g149">
</g>
<g
   id="g151">
</g>
<g
   id="g153">
</g>
<g
   id="g155">
</g>
<g
   id="g157">
</g>
<g
   id="g159">
</g>
<path
   style="fill:#e4eaf8;fill-opacity:1;stroke:#000000;stroke-width:1.19901px;stroke-linecap:butt;stroke-linejoin:miter;stroke-opacity:0"
   d="m 454.70791,179.75601 -8.26672,-8.49834 c 3.1586,-1.52383 6.14372,-0.47606 8.21425,1.88075 z"
   id="path1081"
   sodipodi:nodetypes="cccc" /><path
   style="fill:#e4eaf8;fill-opacity:1;stroke:#000000;stroke-width:1.19901px;stroke-linecap:butt;stroke-linejoin:miter;stroke-opacity:0"
   d="m 449.95397,203.85092 -2.90384,3.03213 2.9121,3.06776 z"
   id="path1089" /><path
   style="fill:#e4eaf8;fill-opacity:1;stroke:#000000;stroke-width:1.20991px;stroke-linecap:butt;stroke-linejoin:miter;stroke-opacity:0"
   d="m 454.61962,223.11906 0.11337,-24.19837 -8.54505,8.84753 8.43162,8.28038 -0.0138,1.70158 z"
   id="path1091" /></svg>
