<?xml version="1.0" encoding="UTF-8" standalone="no"?>
<svg
   xmlns:dc="http://purl.org/dc/elements/1.1/"
   xmlns:cc="http://creativecommons.org/ns#"
   xmlns:rdf="http://www.w3.org/1999/02/22-rdf-syntax-ns#"
   xmlns:svg="http://www.w3.org/2000/svg"
   xmlns="http://www.w3.org/2000/svg"
   xmlns:sodipodi="http://sodipodi.sourceforge.net/DTD/sodipodi-0.dtd"
   xmlns:inkscape="http://www.inkscape.org/namespaces/inkscape"
   inkscape:version="1.0 (4035a4fb49, 2020-05-01)"
   sodipodi:docname="wikilight1.svg"
   xml:space="preserve"
   style="enable-background:new 0 0 512.001 512.001;"
   viewBox="0 0 512.001 512.001"
   y="0px"
   x="0px"
   id="Layer_1"
   version="1.1"><metadata
   id="metadata166"><rdf:RDF><cc:Work
       rdf:about=""><dc:format>image/svg+xml</dc:format><dc:type
         rdf:resource="http://purl.org/dc/dcmitype/StillImage" /><dc:title></dc:title></cc:Work></rdf:RDF></metadata><defs
   id="defs164" /><sodipodi:namedview
   inkscape:current-layer="Layer_1"
   inkscape:window-maximized="0"
   inkscape:window-y="0"
   inkscape:window-x="0"
   inkscape:cy="259.8706"
   inkscape:cx="295.27395"
   inkscape:zoom="1.4142136"
   showgrid="false"
   id="namedview162"
   inkscape:window-height="974"
   inkscape:window-width="1469"
   inkscape:pageshadow="2"
   inkscape:pageopacity="0"
   guidetolerance="10"
   gridtolerance="10"
   objecttolerance="10"
   borderopacity="1"
   bordercolor="#666666"
   pagecolor="#ffffff" />
<path
   id="path89"
   d="M 484.46802,452.30938 H 28.110509 c -12.602354,0 -22.8176158,-10.21527 -22.8176158,-22.81892 V 41.587095 c 0,-12.602355 10.2152618,-22.817618 22.8176158,-22.817618 H 484.46673 c 12.60236,0 22.81762,10.215263 22.81762,22.817618 V 429.49046 c 9.8e-4,12.60365 -10.21397,22.81892 -22.81633,22.81892 z"
   style="fill:#e4eaf8;stroke-width:1.29241" />
<g
   transform="matrix(1.2924167,0,0,1.2924167,5.2928932,-106.72936)"
   id="g95">
	
	<path
   id="path93"
   d="M 370.759,97.104 H 35.31 v 26.483 c 0,4.875 3.953,8.828 8.828,8.828 H 388.414 V 114.76 c 0,-9.751 -7.904,-17.656 -17.655,-17.656 z"
   style="fill:#d5dced" />
</g>
<rect
   id="rect97"
   height="45.635235"
   width="45.635235"
   style="fill:#fff082;stroke-width:1.29241"
   y="18.769472"
   x="416.01389" />
<rect
   id="rect99"
   height="45.635235"
   width="45.635235"
   style="fill:#ff5050;stroke-width:1.29241"
   y="18.769472"
   x="370.37866" />
<path
   id="path101"
   d="M 507.28563,64.406004 H 461.65041 V 18.77077 h 22.81761 c 12.60236,0 22.81761,10.215261 22.81761,22.817617 z"
   style="fill:#a0ffb4;stroke-width:1.29241" />
<path
   id="path103"
   d="M 473.05857,429.49046 H 39.519965 c -6.300531,0 -11.409456,-5.10892 -11.409456,-11.40944 V 98.631786 c 0,-6.30053 5.108925,-11.40946 11.409456,-11.40946 H 473.05857 c 6.30052,0 11.40945,5.10893 11.40945,11.40946 V 418.0823 c 0,6.30054 -5.10893,11.40816 -11.40945,11.40816 z"
   style="fill:#ffffff;stroke-width:1.29241" />
<path
   id="path105"
   d="m 377.2748,266.59141 -88.6689,92.04488 -18.29287,40.69269 c -2.26689,5.04367 2.77203,10.27447 7.62992,7.92041 L 317.14231,388.25918 377.274,325.8372 v -59.24579 z"
   style="fill:#e4eaf8;stroke-width:0.823409" />
<path
   id="path107"
   d="m 263.1664,400.37177 34.64453,-16.7821 c 3.01447,-1.45977 5.759,-3.45559 8.11078,-5.8969 L 489.33205,187.29921 c 2.78576,-2.89182 2.78576,-7.5815 0,-10.4733 l -18.44723,-19.1496 c -2.78574,-2.8918 -7.30339,-2.8918 -10.08917,0 L 277.3845,348.06904 c -2.35176,2.44131 -4.2744,5.29034 -5.68061,8.41957 L 255.5373,392.4522 c -2.26852,5.04201 2.77042,10.27279 7.6291,7.91957 z"
   style="fill:#5b5d6e;stroke-width:0.823409" />
<rect
   transform="matrix(0.68645072,-0.72717632,0.70954008,0.70466508,0,0)"
   y="482.76605"
   x="19.116438"
   height="15.389557"
   width="193.73776"
   id="rect212"
   style="fill:#e4eaf8;fill-opacity:1;stroke-width:1.81155" /><g
   transform="matrix(1.2924167,0,0,1.2924167,5.2928932,-106.72936)"
   id="g113">
	<path
   id="path109"
   d="M 350.82559,229.17894 194.50875,391.44807 c 1.22562,1.27227 3.13971,1.82857 5.01878,0.91851 l 26.806,-12.98506 c 2.33242,-1.12948 4.45599,-2.67374 6.27565,-4.56335 L 361.86615,240.64051 Z"
   style="fill:#464655;stroke-width:0.637108" />
	<path
   id="path111"
   d="m 185.379,176.553 h -17.655 c -4.879,0 -8.828,3.953 -8.828,8.828 0,3.486 2.063,6.435 4.998,7.869 l -22.653,56.64 -22.275,-55.681 h 4.62 c 4.879,0 8.828,-3.953 8.828,-8.828 0,-4.875 -3.948,-8.828 -8.828,-8.828 h -17.655 c -2.931,0 -5.664,1.452 -7.31,3.88 -1.638,2.426 -1.974,5.508 -0.888,8.228 l 7.514,18.786 -16.971,42.438 -22.275,-55.677 h 4.62 c 4.879,0 8.828,-3.953 8.828,-8.828 0,-4.875 -3.948,-8.828 -8.828,-8.828 H 52.966 c -2.931,0 -5.664,1.452 -7.31,3.88 -1.638,2.426 -1.974,5.508 -0.888,8.228 l 35.31,88.276 c 1.345,3.349 4.587,5.547 8.199,5.547 3.612,0 6.854,-2.198 8.199,-5.547 l 18.284,-45.713 18.285,45.713 c 1.345,3.349 4.586,5.547 8.199,5.547 3.613,0 6.854,-2.198 8.199,-5.547 l 33.09,-82.729 h 2.848 c 4.879,0 8.828,-3.953 8.828,-8.828 0,-4.875 -3.95,-8.826 -8.83,-8.826 z"
   style="fill:#464655" />
</g>
<path
   id="path115"
   d="M 233.47165,326.81054 H 73.747037 c -6.305701,0 -11.409455,-5.10892 -11.409455,-11.40945 0,-6.30053 5.102462,-11.40945 11.409455,-11.40945 H 233.47165 c 6.30569,0 11.40946,5.10892 11.40946,11.40945 0,6.30053 -5.10377,11.40945 -11.40946,11.40945 z"
   style="fill:#959cb5;stroke-width:1.29241" />
<path
   id="path117"
   d="M 416.01387,144.26832 H 301.92449 c -6.30569,0 -11.40944,-5.10892 -11.40944,-11.40946 0,-6.30054 5.10246,-11.40946 11.40944,-11.40946 h 114.08938 c 6.30571,0 11.40946,5.10892 11.40946,11.40946 0,6.30054 -5.10246,11.40946 -11.40946,11.40946 z"
   style="fill:#7f8499;stroke-width:1.29241" />
<path
   id="path119"
   d="m 370.37865,189.90355 h -68.45416 c -6.30569,0 -11.40944,-5.10893 -11.40944,-11.40945 0,-6.30054 5.10246,-11.40946 11.40944,-11.40946 h 68.45416 c 6.3057,0 11.40944,5.10892 11.40944,11.40946 0,6.30052 -5.10374,11.40945 -11.40944,11.40945 z"
   style="fill:#707487;stroke-width:1.29241" />
<path
   id="path121"
   d="M 187.83512,372.44578 H 73.747037 c -6.305701,0 -11.409455,-5.10892 -11.409455,-11.40946 0,-6.30052 5.102462,-11.40945 11.409455,-11.40945 H 187.83641 c 6.30571,0 11.40946,5.10893 11.40946,11.40945 -9.8e-4,6.30183 -5.10375,11.40946 -11.41075,11.40946 z"
   style="fill:#959cb5;stroke-width:1.29241" />
<path
   id="path123"
   d="m 313.06671,370.27236 -28.5364,-29.6229 -7.14661,7.41875 c -2.35178,2.4413 -4.27439,5.29034 -5.68062,8.41957 l -16.16658,35.96274 c -2.2669,5.04369 2.77201,10.27364 7.6299,7.92041 l 34.64373,-16.7821 c 3.01446,-1.45975 5.759,-3.45559 8.11076,-5.89774 z"
   style="fill:#7f8499;stroke-width:0.823409" />
<path
   id="path125"
   d="m 298.79852,355.46091 -42.11927,43.72292 c 1.58402,1.64433 4.05782,2.3633 6.48636,1.1871 l 34.64452,-16.7821 c 3.01446,-1.45975 5.759,-3.45559 8.11076,-5.89774 l 7.14582,-7.41789 z"
   style="fill:#707487;stroke-width:0.823409" />
<path
   style="fill:#d7dce9;fill-opacity:1;stroke-width:0.823409"
   d="m 483.90798,164.1547 c -2.78657,-2.89267 -7.30261,-2.89267 -10.08918,0 l -16.35811,16.98092 28.5364,29.62291 16.35811,-16.98096 c 2.78658,-2.89266 2.78658,-7.58147 0,-10.47328 z"
   id="path127-5" /><path
   id="path127"
   d="m 470.88482,157.67297 c -2.78656,-2.89266 -7.3026,-2.89266 -10.08917,0 l -16.35811,16.98092 28.5364,29.6229 16.35811,-16.98095 c 2.78657,-2.89265 2.78657,-7.58148 0,-10.47328 z"
   style="fill:#7f8499;stroke-width:0.823409" />
<path
   id="path129"
   d="m 489.33205,176.82256 -9.22361,-9.5748 -21.40269,22.21758 14.26819,14.81145 16.35811,-16.98095 c 2.78576,-2.89097 2.78576,-7.58065 0,-10.47328 z"
   style="fill:#707487;stroke-width:0.823409" />
<g
   id="g131">
</g>
<g
   id="g133">
</g>
<g
   id="g135">
</g>
<g
   id="g137">
</g>
<g
   id="g139">
</g>
<g
   id="g141">
</g>
<g
   id="g143">
</g>
<g
   id="g145">
</g>
<g
   id="g147">
</g>
<g
   id="g149">
</g>
<g
   id="g151">
</g>
<g
   id="g153">
</g>
<g
   id="g155">
</g>
<g
   id="g157">
</g>
<g
   id="g159">
</g>
<path
   sodipodi:nodetypes="cccc"
   id="path1081"
   d="m 484.5507,171.79176 -8.83038,-9.0778 c 3.37397,-1.62773 6.56262,-0.50852 8.77433,2.00899 z"
   style="fill:#e4eaf8;fill-opacity:1;stroke:#000000;stroke-width:1.28076px;stroke-linecap:butt;stroke-linejoin:miter;stroke-opacity:0" /><path
   id="path1085"
   d="m 484.48123,198.83792 12.40908,0.60803 -12.44861,12.9306 z"
   style="fill:#d7dce9;fill-opacity:1;stroke:#000000;stroke-width:1.28076px;stroke-linecap:butt;stroke-linejoin:miter;stroke-opacity:0.00772202" /><path
   id="path1089"
   d="m 479.47262,197.52958 -3.10184,3.23887 3.11066,3.27694 z"
   style="fill:#e4eaf8;fill-opacity:1;stroke:#000000;stroke-width:1.28076px;stroke-linecap:butt;stroke-linejoin:miter;stroke-opacity:0" /><path
   id="path1091"
   d="m 484.45639,218.11151 0.1211,-25.84833 -9.12769,9.4508 9.00653,8.84497 -0.0148,1.8176 z"
   style="fill:#e4eaf8;fill-opacity:1;stroke:#000000;stroke-width:1.29241px;stroke-linecap:butt;stroke-linejoin:miter;stroke-opacity:0" /></svg>
